<svg id="Layer_1" data-name="Layer 1" xmlns="http://www.w3.org/2000/svg" viewBox="0 0 1024 1024"><defs><style>.cls-1{fill:#f0418e;}.cls-2{fill:#e53c89;}.cls-3{fill:#bdc6c9;}.cls-4{fill:#d0d6d8;}.cls-5{fill:#a1afb7;}.cls-6{fill:#8b98a0;}.cls-7{fill:#fbd131;}.cls-8{fill:#f9c32b;}</style></defs><path class="cls-1" d="M1023.68,512a514,514,0,0,1-10.49,103.57C965.31,848.51,759.12,1023.68,512,1023.68A512.89,512.89,0,0,1,378.08,1006l-.5-.13A508.74,508.74,0,0,1,275.72,966C112.06,880.62.32,709.36.32,512,.32,229.4,229.41.32,512,.32S1023.68,229.4,1023.68,512Z"/><path class="cls-2" d="M1022.29,550.05q-1.45,19.79-4.4,39.13-2,13.3-4.69,26.38a507.94,507.94,0,0,1-35.49,108.59A513.31,513.31,0,0,1,691.65,991.23q-18.4,6.93-37.5,12.43a511.62,511.62,0,0,1-142.14,20q-21.47,0-42.48-1.73L176,784.87a5.21,5.21,0,0,1,.79,0H177a3.39,3.39,0,0,1,.43.11h.14a1.77,1.77,0,0,0,.56.09c1.16.08,1.38-.42,2.48-.4.94,0,.87.38,1.86.4s1.24-.35,2.25-.33.87.32,1.73.4c1.63.15,2.11-.92,3.47-.66,1,.17,1,.81,1.88.86,1.21.07,1.54-1,2.76-.93.82.06.88.58,1.92.66.74.07.8-.2,1.72-.2,1.16,0,1.24.44,2.05.34,1.11-.14,1.33-1,2.2-.93.65.08.64.59,1.38.72s1-.43,2.13-.46c.81,0,.88.29,1.78.27s.9-.3,1.72-.4c1.45-.18,1.74.6,2.82.33s1.13-1,1.92-.93c.52.05.54.4,1.24.53s.94-.18,1.57-.06a2.09,2.09,0,0,1,1.25.77c.38-37.35-.16-110.45-11.19-140.75-.24-.69-.55-1.52-.91-2.46a51,51,0,0,0-3.93-8.2,10.26,10.26,0,0,0,3.57-7.75,10.4,10.4,0,0,0-5.28-9V594.67l-8.87-7.16-70.87-57.23-35.09-28.4L80,497.31l6.4,3.66q19.88,11.31,39.73,22.67,32.78,18.68,65.53,37.41l8.87,5.07,68.19,39q-6.24,17.24-12.53,34.55-6,16.53-12,33.05c0,.15-.11.29-.16.45l.46-.21A311.44,311.44,0,0,1,280.1,659c35.52-11.49,91.37-23.11,154-11.38A261.83,261.83,0,0,1,512,675.08a261.92,261.92,0,0,1,77.85-27.44c93.49-17.5,171.94,17,190.07,25.5q-12.3-34-24.6-68.07,22-12.52,43.9-25.06,60.72-34.69,121.43-69.29l24.68-14.1c0-2.91,0-5.8-.05-8.71Z"/><path class="cls-3" d="M945.32,496.58,740.19,613.66h0L512,543.52V260l153.9,84,57.53,31.41Z"/><path class="cls-4" d="M779.91,673.12c-18.13-8.47-96.57-43-190.07-25.5A262,262,0,0,0,512,675.08v-253a646.34,646.34,0,0,1,90,9.52,608.85,608.85,0,0,1,72.74,17.54c17.28,5.32,30.09,16.35,34.91,29.67l30.47,84.35h0Z"/><path class="cls-5" d="M945.32,496.58,723.46,375.43,665.9,344,512,260v-8.93Q728.56,369.35,945.27,487.64C945.29,490.61,945.31,493.58,945.32,496.58Z"/><path class="cls-5" d="M78.68,496.58,283.81,613.66h0L512,543.52V260L358.1,344l-57.57,31.41Z"/><path class="cls-3" d="M244.09,673.12c18.13-8.47,96.57-43,190.07-25.5A262,262,0,0,1,512,675.08v-253A646.34,646.34,0,0,0,422,431.61a608.85,608.85,0,0,0-72.74,17.54c-17.28,5.32-30.09,16.35-34.91,29.67Q299.06,521,283.83,563.17h0Z"/><path class="cls-6" d="M78.68,496.58,300.54,375.43,358.1,344,512,260v-8.93Q295.45,369.35,78.73,487.64C78.71,490.61,78.69,493.58,78.68,496.58Z"/><path class="cls-7" d="M195.47,628.23c-5.88-.05-10.38,12-12.16,16.72-11.43,30.56-10.34,102.12-9,140.54a3.91,3.91,0,0,1,2.35-.65c.62,0,.69.22,1.38.26,1.15.07,1.37-.42,2.47-.4.94,0,.87.38,1.86.4s1.24-.35,2.25-.33.87.32,1.72.4c1.64.15,2.12-.92,3.48-.67,1,.19,1,.82,1.89.87,1.2.07,1.53-1,2.75-.93.82.06.88.58,1.92.66.75.06.81-.19,1.72-.2,1.17,0,1.24.44,2,.34,1.12-.14,1.34-1,2.2-.94.65.08.64.6,1.38.74s1-.43,2.13-.47c.82,0,.88.29,1.78.27s.9-.3,1.72-.4c1.44-.18,1.75.6,2.82.33s1.14-1,1.93-.93c.52,0,.54.4,1.22.53s1-.18,1.58-.07a2.21,2.21,0,0,1,1.26.78c.36-37.35-.17-110.44-11.2-140.76C205.38,639.78,201.19,628.28,195.47,628.23Z"/><path class="cls-7" d="M212.49,414.45l-12,16.65V619.47h-8.88V433.86a14.49,14.49,0,0,1,2.87-8.52l1.54-2.12c3-4.14,8-7.14,14-8.29Z"/><path class="cls-8" d="M191.63,644.94c-11.36,30.43-10.33,101.64-8.94,140.14h-.23c-1,0-.91-.35-1.89-.41s-1.33.47-2.43.41c-.73,0-.79-.23-1.4-.23a4.13,4.13,0,0,0-2.37.64c-1.4-38.44-2.49-110,8.93-140.55,1.83-4.77,6.33-16.78,12.16-16.72a6,6,0,0,1,4.13,2C195.83,633.81,193,641.4,191.63,644.94Z"/><ellipse class="cls-7" cx="194.98" cy="625.89" rx="10.79" ry="10.45"/><path class="cls-8" d="M196.91,636.16a7.56,7.56,0,0,1-1.64.18,10.45,10.45,0,1,1-.65-20.89h.65a7.56,7.56,0,0,1,1.64.18,10.33,10.33,0,0,0,0,20.53Z"/></svg>