<svg id="Layer_1" data-name="Layer 1" xmlns="http://www.w3.org/2000/svg" viewBox="0 0 1024 1024"><defs><style>.cls-1{fill:#c6e2f4;}.cls-2{fill:#f6a300;}.cls-3{fill:#929fa5;}.cls-4{fill:#a1afb7;}.cls-5{fill:#ed9700;}.cls-6{fill:#f3f3f3;}.cls-7{fill:#fff;}.cls-8{fill:#eaeaea;}.cls-9{fill:#f4f4f4;}.cls-10{fill:#ffe650;}.cls-11{fill:#ffd44a;}.cls-12{fill:none;stroke:#fff;stroke-miterlimit:10;stroke-width:1.63px;}.cls-13{fill:#adbfcb;}.cls-14{fill:#8b99a0;}</style></defs><path class="cls-1" d="M835.42,298.42h-.53c-10-.41-20.44-.67-31.48-.67V272.7Z"/><path class="cls-2" d="M1023.68,512c0,263.11-198.58,479.83-454,508.47a518.38,518.38,0,0,1-57.63,3.21C229.41,1023.68.32,794.59.32,512S229.41.32,512,.32C770.16.32,983.71,191.5,1018.68,440A514.1,514.1,0,0,1,1023.68,512Z"/><path class="cls-3" d="M513.73,365.54l-.29,359.09v26.72a1536,1536,0,0,0-211-36c-42.73-4.26-83.39-6.5-121.62-7.25h-.41v-.32l.08-99.28.25-308.25c10.51-.46,21.66-.73,33.41-.71h0a718.7,718.7,0,0,1,170.31,20.66q9.06,2.22,18.29,4.75l4.52,1.25A711.36,711.36,0,0,1,513.73,365.54Z"/><path class="cls-4" d="M846.83,300.79v1.11l-.33,406.75c-38.36.69-79.15,2.87-122,7.06a1539,1539,0,0,0-211.1,35.65V724.61l.29-359.1A713.49,713.49,0,0,1,813.21,300c11,0,21.53.26,31.47.67h.58Z"/><path class="cls-5" d="M1023.68,512c0,263.11-198.58,479.83-454,508.47L180.82,708.1c38.23.75,78.88,3,121.61,7.25a1536.41,1536.41,0,0,1,211,36,1537.27,1537.27,0,0,1,211.09-35.64c42.88-4.19,83.67-6.37,122-7.06l.33-406.75L1018.65,440A514.13,514.13,0,0,1,1023.68,512Z"/><path class="cls-6" d="M513.73,365.54l-.37,359.11a1257,1257,0,0,0-189.72-36c-38.57-4.28-75.26-6.51-109.76-7.26l.33-407.83a587.79,587.79,0,0,1,134.53,8.88c24.09,4.45,42.51,7.31,65.17,15.85C462.16,316.44,494.85,345.56,513.73,365.54Z"/><path class="cls-7" d="M813.3,274.06v26L813,681.89c-34.51.7-71.19,2.87-109.77,7.09a1257.23,1257.23,0,0,0-189.76,35.65h-.06q.18-179.57.35-359.12c18.89-19.91,51.54-49,99.83-67.13,22.66-8.48,41.1-11.36,65.2-15.73A587.23,587.23,0,0,1,811.55,274h.54Z"/><path class="cls-8" d="M513.73,365.32l-.33,360.55a641.87,641.87,0,0,0-265.47-77.5l-.48-394.21A329.83,329.83,0,0,1,513.73,365.32Z"/><path class="cls-9" d="M648.55,273.37a331.11,331.11,0,0,1,131.12-19.14l-.48,394.25A641.72,641.72,0,0,0,513.72,726l-.33-360.59A333.1,333.1,0,0,1,648.55,273.37Z"/><path class="cls-10" d="M610.25,331.39a97,97,0,0,1-38,77.18.42.42,0,0,0-.14.09c-.79.53-1.55,1.1-2.29,1.71a37.63,37.63,0,0,0-14.15,29.47v21.05l-30.66.05H507.31l-25.38.05H464.6V432.66a3.78,3.78,0,0,0-.06-.83,7.4,7.4,0,0,1-.08-.81c0-.27-.06-.63-.1-.92a3.62,3.62,0,0,0-.06-.46c-.08-.5-.15-1-.25-1.48a2.47,2.47,0,0,0-.1-.53c0-.18-.08-.43-.13-.64s-.08-.38-.13-.58q-.15-.66-.33-1.32c-.05-.19-.1-.37-.16-.56-.12-.43-.25-.87-.4-1.29l-.2-.61c-.07-.2-.14-.4-.22-.61s-.14-.39-.23-.6-.12-.32-.19-.48q-.25-.66-.54-1.29l-.26-.57h0c-.16-.32-.32-.65-.46-1a12.59,12.59,0,0,0-.68-1.28c-.15-.27-.3-.54-.46-.81s-.32-.56-.49-.84c-.34-.54-.7-1.08-1.06-1.61-.19-.26-.37-.53-.56-.78l-.58-.77-.6-.76c-.2-.25-.4-.5-.62-.74s-.4-.46-.61-.72h0l-.54-.58c-.69-.74-1.42-1.45-2.17-2.13h0c-.74-.67-1.52-1.31-2.33-1.92,0-.05-.08-.06-.11-.1a88.82,88.82,0,0,1-6.57-6.15l-1.81-1.82c-.58-.62-1.14-1.26-1.7-1.9l-1.07-1.26c-.77-.92-1.53-1.84-2.27-2.8l-.59-.78q-2.22-2.91-4.2-6c-.24-.36-.46-.73-.7-1.09s-.63-1-.92-1.51-.66-1.1-1-1.65-.64-1.11-.95-1.68-.55-1-.81-1.51l-.2-.37c-.23-.46-.46-.88-.69-1.32-.38-.76-.75-1.52-1.11-2.3-.22-.46-.46-.91-.65-1.41s-.41-.91-.61-1.37l-.42-1c-.7-1.69-1.37-3.41-2-5.15-.25-.71-.5-1.44-.74-2.17-.13-.41-.27-.82-.4-1.24-.08-.27-.16-.54-.25-.82s-.25-.84-.38-1.28a1.9,1.9,0,0,0-.11-.39c-.12-.43-.24-.85-.35-1.27l-.34-1.27c-.11-.42-.21-.83-.31-1.25-.17-.72-.34-1.45-.49-2.18-.06-.25-.12-.51-.17-.77h0c-.13-.67-.27-1.34-.39-2-.08-.4-.15-.8-.22-1.2l-.14-.83q-.25-1.56-.45-3.15c-.05-.32-.09-.63-.12-.94s-.09-.68-.12-1-.08-.69-.11-1-.09-.86-.12-1.29-.07-.9-.1-1.35-.06-.81-.08-1.22c-.06-.88-.09-1.75-.12-2.64v-7.17a8.18,8.18,0,0,1,.06-1.21c.06-.4,0-.69.06-1s.05-.77.09-1.16.06-.82.1-1.23a8.52,8.52,0,0,1,.08-.87,6.77,6.77,0,0,1,.08-.8c0-.27.07-.62.1-.92s.09-.7.13-1.05.09-.73.14-1.09l.14-1,.15-1c.1-.63.21-1.25.32-1.88.07-.38.13-.75.21-1.12s.15-.8.23-1.19c.49-2.36,1.05-4.7,1.71-7,.22-.77.46-1.54.68-2.3s.48-1.51.73-2.27.52-1.49.79-2.24q.81-2.24,1.73-4.4c.31-.72.62-1.44,1-2.16.17-.38.34-.75.52-1.13s.31-.67.45-1,.34-.71.52-1.07l.74-1.46.11-.21.77-1.45c.62-1.11,1.24-2.21,1.87-3.29.1-.18.21-.35.31-.52.25-.42.51-.84.77-1.25l.63-1a17.18,17.18,0,0,1,1-1.46c.37-.47.65-1,1-1.45.67-1,1.35-1.91,2-2.84.46-.62.95-1.24,1.42-1.84s1-1.22,1.46-1.82l1.49-1.78c.51-.59,1-1.17,1.55-1.74q2.37-2.61,4.91-5l.81-.77.86-.79.87-.78c.25-.22.5-.46.76-.67s.72-.63,1.09-.92.53-.45.8-.66.76-.63,1.14-.92l.67-.53c2.15-1.68,4.35-3.28,6.62-4.78l1-.64,1-.63.84-.51q.92-.57,1.86-1.11l.85-.49c.29-.15.5-.28.76-.41l.74-.41h0l1-.56c.35-.17.69-.36,1-.54.72-.37,1.44-.73,2.18-1.09l2-1c.69-.32,1.44-.64,2.17-.95l1.09-.46.78-.31c1.21-.49,2.43-.92,3.65-1.38l1.12-.39,1.08-.36c.84-.27,1.69-.54,2.54-.79l.91-.27,1.24-.35,1.07-.28q3-.78,6-1.38l1.27-.24,1.67-.28.88-.13,1.29-.19,1.52-.19,1.06-.12,1-.1.86-.09,1-.08,1.08-.08,1.28-.08h1.05c1.41-.07,2.83-.1,4.26-.1h1.43a72.57,72.57,0,0,1,7.25.36c1.17.1,2.33.22,3.49.37A97.11,97.11,0,0,1,610.25,331.39Z"/><path class="cls-11" d="M481.86,434.94V461H464.53V434.94a37.63,37.63,0,0,0-12.35-27.87h0c-.73-.68-1.51-1.31-2.32-1.93l-.12-.1A97.08,97.08,0,0,1,513,234.45c2.93,0,5.81.12,8.66.37a97.08,97.08,0,0,0-54.59,170.25l.11.1a28.38,28.38,0,0,1,2.33,1.93h0A37.6,37.6,0,0,1,481.86,434.94Z"/><path class="cls-12" d="M507.1,468.7c2.66-85.64-4.5-108.16-12.76-109.72-7.51-1.42-19.74,13.73-16.67,21.49C483.37,395,545,391.32,549,376.1c2.23-8.37-12.5-22.75-20.46-20.3-8.53,2.58-14,25.82-2.56,112.44"/><path class="cls-13" d="M555.86,519.5a7,7,0,0,1-7,7.07h0l-77.41.13a6.69,6.69,0,0,1-6.7-6.67V507.5h0v-9.18h0v-5.58h0v-9.18h0V478h0V461h60.42l30.63-.1h0V519.5Z"/><path class="cls-14" d="M559.9,475.93a1.85,1.85,0,0,1-1.85,1.87h-2.24l-74.95.12H461.74l-.19-.08h0l-.2-.11h0a1.87,1.87,0,0,1-.81-1.55v-5.45a1.85,1.85,0,0,1,.76-1.57,1.35,1.35,0,0,1,.26-.15l.13-.06.14-.05.18,0a2.16,2.16,0,0,1,.36,0H507.1l48.68-.08H558a1.87,1.87,0,0,1,1.87,1.86h0Z"/><path class="cls-14" d="M559.92,490.72a1.87,1.87,0,0,1-1.86,1.87h-2.25l-91.15.14H462.2a2.15,2.15,0,0,1-.5-.12,1.89,1.89,0,0,1-1.16-1.73v-5.45a1.88,1.88,0,0,1,1.31-1.79,1.45,1.45,0,0,1,.35-.07h18.7l74.88-.17H558a1.87,1.87,0,0,1,1.87,1.86h0Z"/><path class="cls-14" d="M560,505.48a1.87,1.87,0,0,1-1.87,1.87h-2.29l-91.15.14H462.2l-.3-.06-.21-.07-.17-.08-.16-.1a1,1,0,0,1-.18-.13,1.85,1.85,0,0,1-.64-1.41v-5.45a1.85,1.85,0,0,1,1.66-1.86h2.46l91.15-.14h2.24a1.87,1.87,0,0,1,1.87,1.87Z"/></svg>